<?xml version="1.0" encoding="UTF-8" standalone="no"?>
<svg
   xmlns:dc="http://purl.org/dc/elements/1.1/"
   xmlns:cc="http://creativecommons.org/ns#"
   xmlns:rdf="http://www.w3.org/1999/02/22-rdf-syntax-ns#"
   xmlns:svg="http://www.w3.org/2000/svg"
   xmlns="http://www.w3.org/2000/svg"
   xmlns:sodipodi="http://sodipodi.sourceforge.net/DTD/sodipodi-0.dtd"
   xmlns:inkscape="http://www.inkscape.org/namespaces/inkscape"
   width="210mm"
   height="297mm"
   viewBox="0 0 210 297"
   version="1.1"
   id="svg2257"
   inkscape:version="1.0.2 (e86c870879, 2021-01-15)"
   sodipodi:docname="back.svg">
  <defs
     id="defs2251" />
  <sodipodi:namedview
     id="base"
     pagecolor="#ffffff"
     bordercolor="#666666"
     borderopacity="1.0"
     inkscape:pageopacity="0.0"
     inkscape:pageshadow="2"
     inkscape:zoom="0.98994949"
     inkscape:cx="377.38534"
     inkscape:cy="343.0649"
     inkscape:document-units="mm"
     inkscape:current-layer="layer1"
     inkscape:document-rotation="0"
     showgrid="false"
     inkscape:window-width="1564"
     inkscape:window-height="974"
     inkscape:window-x="38"
     inkscape:window-y="65"
     inkscape:window-maximized="0" />
  <metadata
     id="metadata2254">
    <rdf:RDF>
      <cc:Work
         rdf:about="">
        <dc:format>image/svg+xml</dc:format>
        <dc:type
           rdf:resource="http://purl.org/dc/dcmitype/StillImage" />
        <dc:title />
      </cc:Work>
    </rdf:RDF>
  </metadata>
  <g
     inkscape:label="Layer 1"
     inkscape:groupmode="layer"
     id="layer1">
    <path
       id="path837"
       style="fill:none;stroke:#000002;stroke-width:0.0761549;stroke-linecap:square;stroke-opacity:0.931833;paint-order:fill markers stroke"
       d="m 84.806932,155.73177 a 1.6,1.6 0 0 1 -1.6,1.6 1.6,1.6 0 0 1 -1.6,-1.6 1.6,1.6 0 0 1 1.6,-1.6 1.6,1.6 0 0 1 1.6,1.6 z" />
    <path
       id="path837-3"
       style="fill:none;stroke:#000002;stroke-width:0.0761549;stroke-linecap:square;stroke-opacity:0.931833;paint-order:fill markers stroke"
       d="m 112.80693,155.73177 a 1.6,1.6 0 0 1 -1.6,1.6 1.6,1.6 0 0 1 -1.6,-1.6 1.6,1.6 0 0 1 1.6,-1.6 1.6,1.6 0 0 1 1.6,1.6 z" />
    <path
       id="rect859"
       style="fill:none;stroke:#000002;stroke-width:0.102114;stroke-linecap:square;stroke-opacity:0.931833;paint-order:fill markers stroke"
       d="m 87.206932,149.73177 h 19.999998 v 12 H 87.206932 Z" />
    <path
       id="path837-6"
       style="fill:none;stroke:#000000;stroke-width:0.1;stroke-linecap:square;stroke-miterlimit:4;stroke-dasharray:none;paint-order:fill markers stroke"
       d="m 60.806936,134.23177 a 1.6,1.6 0 0 1 -1.6,1.6 1.6,1.6 0 0 1 -1.6,-1.6 1.6,1.6 0 0 1 1.6,-1.6 1.6,1.6 0 0 1 1.6,1.6 z" />
    <path
       id="path837-3-7"
       style="fill:none;stroke:#000000;stroke-width:0.1;stroke-linecap:square;stroke-miterlimit:4;stroke-dasharray:none;paint-order:fill markers stroke"
       d="m 81.806917,134.23177 a 1.6,1.6 0 0 1 -1.6,1.6 1.6,1.6 0 0 1 -1.6,-1.6 1.6,1.6 0 0 1 1.6,-1.6 1.6,1.6 0 0 1 1.6,1.6 z" />
    <path
       id="path861"
       style="fill:none;stroke:#000000;stroke-width:0.105454;stroke-linecap:square;stroke-miterlimit:4;stroke-dasharray:none;paint-order:fill markers stroke"
       d="m 72.606932,134.23177 a 2.9000001,2.9000001 0 0 1 -2.9,2.9 2.9000001,2.9000001 0 0 1 -2.9,-2.9 2.9000001,2.9000001 0 0 1 2.9,-2.9 2.9000001,2.9000001 0 0 1 2.9,2.9 z" />
    <path
       id="path2897-3-9"
       style="fill:none;stroke:#000000;stroke-width:0.066198;stroke-linecap:square;paint-order:fill markers stroke"
       d="m 44.806932,163.2317 a 1.6,1.6 0 0 1 -1.6,1.6 1.6,1.6 0 0 1 -1.6,-1.6 1.6,1.6 0 0 1 1.6,-1.6 1.6,1.6 0 0 1 1.6,1.6 z" />
    <path
       id="path2897-4-9-6"
       style="fill:none;stroke:#000000;stroke-width:0.066198;stroke-linecap:square;paint-order:fill markers stroke"
       d="m 152.80692,163.2317 a 1.6,1.6 0 0 1 -1.6,1.6 1.6,1.6 0 0 1 -1.6,-1.6 1.6,1.6 0 0 1 1.6,-1.6 1.6,1.6 0 0 1 1.6,1.6 z" />
    <path
       id="path2897-4-4-4-2"
       style="fill:none;stroke:#000000;stroke-width:0.066198;stroke-linecap:square;paint-order:fill markers stroke"
       d="m 152.80692,37.23177 a 1.6,1.6 0 0 1 -1.6,1.6 1.6,1.6 0 0 1 -1.6,-1.6 1.6,1.6 0 0 1 1.6,-1.6 1.6,1.6 0 0 1 1.6,1.6 z" />
    <path
       id="path2897-4-8-0-6"
       style="fill:none;stroke:#000000;stroke-width:0.066198;stroke-linecap:square;paint-order:fill markers stroke"
       d="m 44.806932,37.23177 a 1.6,1.6 0 0 1 -1.6,1.6 1.6,1.6 0 0 1 -1.6,-1.6 1.6,1.6 0 0 1 1.6,-1.6 1.6,1.6 0 0 1 1.6,1.6 z" />
    <path
       id="rect2166-2-5-9"
       style="fill:none;stroke:#000000;stroke-width:0.21892;stroke-linecap:square;paint-order:fill markers stroke"
       d="M 27.206917,30.231768 H 167.20692 V 170.23177 H 27.206917 Z" />
    <path
       id="path1283-6-1"
       style="fill:none;stroke:#0000ff;stroke-width:0.0360294;stroke-linecap:square;paint-order:fill markers stroke"
       transform="rotate(45)"
       d="m 100.70516,8.6388741 a 1.6,1.6 0 0 1 -1.599996,1.5999999 1.6,1.6 0 0 1 -1.6,-1.5999999 1.6,1.6 0 0 1 1.6,-1.6000001 1.6,1.6 0 0 1 1.599996,1.6000001 z" />
    <path
       id="path1283-6-5-6"
       style="fill:none;stroke:#0000ff;stroke-width:0.0360294;stroke-linecap:square;paint-order:fill markers stroke"
       transform="rotate(45)"
       d="m 100.70516,-4.3611259 a 1.6,1.6 0 0 1 -1.599996,1.6 1.6,1.6 0 0 1 -1.6,-1.6 1.6,1.6 0 0 1 1.6,-1.6000001 1.6,1.6 0 0 1 1.599996,1.6000001 z" />
  </g>
</svg>
