<?xml version="1.0" encoding="UTF-8" standalone="no"?>
<svg
   xmlns:dc="http://purl.org/dc/elements/1.1/"
   xmlns:cc="http://creativecommons.org/ns#"
   xmlns:rdf="http://www.w3.org/1999/02/22-rdf-syntax-ns#"
   xmlns:svg="http://www.w3.org/2000/svg"
   xmlns="http://www.w3.org/2000/svg"
   xmlns:sodipodi="http://sodipodi.sourceforge.net/DTD/sodipodi-0.dtd"
   xmlns:inkscape="http://www.inkscape.org/namespaces/inkscape"
   width="210mm"
   height="297mm"
   viewBox="0 0 210 297"
   version="1.1"
   id="svg1219"
   inkscape:version="1.0.2 (e86c870879, 2021-01-15)"
   sodipodi:docname="front.svg">
  <defs
     id="defs1213" />
  <sodipodi:namedview
     id="base"
     pagecolor="#ffffff"
     bordercolor="#666666"
     borderopacity="1.0"
     inkscape:pageopacity="0.0"
     inkscape:pageshadow="2"
     inkscape:zoom="0.98994949"
     inkscape:cx="351.59269"
     inkscape:cy="363.16024"
     inkscape:document-units="mm"
     inkscape:current-layer="layer1"
     inkscape:document-rotation="0"
     showgrid="false"
     inkscape:window-width="1920"
     inkscape:window-height="1136"
     inkscape:window-x="0"
     inkscape:window-y="27"
     inkscape:window-maximized="1" />
  <metadata
     id="metadata1216">
    <rdf:RDF>
      <cc:Work
         rdf:about="">
        <dc:format>image/svg+xml</dc:format>
        <dc:type
           rdf:resource="http://purl.org/dc/dcmitype/StillImage" />
        <dc:title />
      </cc:Work>
    </rdf:RDF>
  </metadata>
  <g
     inkscape:label="Layer 1"
     inkscape:groupmode="layer"
     id="layer1">
    <path
       id="rect1311-1-1-1-2-7-6"
       style="fill:none;stroke:#000000;stroke-width:0.114282;stroke-linecap:square;paint-order:fill markers stroke"
       d="m 156.92785,126.42656 h -14 v 14 h 14 z" />
    <path
       id="rect1311-1-1-1-2-8-7"
       style="fill:none;stroke:#000000;stroke-width:0.114282;stroke-linecap:square;paint-order:fill markers stroke"
       d="m 156.92785,104.42656 h -14 v 14 h 14 z" />
    <path
       id="rect1311-1-1-1-2-1-5"
       style="fill:none;stroke:#000000;stroke-width:0.114282;stroke-linecap:square;paint-order:fill markers stroke"
       d="m 136.92785,126.42656 h -14 v 14 h 14 z" />
    <path
       id="rect1311-1-1-1-2-2-3"
       style="fill:none;stroke:#000000;stroke-width:0.114282;stroke-linecap:square;paint-order:fill markers stroke"
       d="m 136.92785,104.42656 h -14 v 14 h 14 z" />
    <path
       id="rect1311-1-1-1-2-9-56"
       style="fill:none;stroke:#000000;stroke-width:0.114282;stroke-linecap:square;paint-order:fill markers stroke"
       d="m 136.92785,82.426562 h -14 v 14 h 14 z" />
    <path
       id="rect1311-1-1-1-2-4-2"
       style="fill:none;stroke:#000000;stroke-width:0.114282;stroke-linecap:square;paint-order:fill markers stroke"
       d="m 136.92785,60.426554 h -14 v 14 h 14 z" />
    <path
       id="rect1311-1-1-1-2-7-3-9"
       style="fill:none;stroke:#000000;stroke-width:0.114282;stroke-linecap:square;paint-order:fill markers stroke"
       d="M 111.92785,126.42656 H 97.927855 v 14 h 13.999995 z" />
    <path
       id="rect1311-1-1-1-2-8-8-1"
       style="fill:none;stroke:#000000;stroke-width:0.114282;stroke-linecap:square;paint-order:fill markers stroke"
       d="M 111.92785,104.42656 H 97.927855 v 14 h 13.999995 z" />
    <path
       id="rect1311-1-1-1-2-1-9-2"
       style="fill:none;stroke:#000000;stroke-width:0.114282;stroke-linecap:square;paint-order:fill markers stroke"
       d="m 91.927855,126.42656 h -14 v 14 h 14 z" />
    <path
       id="rect1311-1-1-1-2-2-0-7"
       style="fill:none;stroke:#000000;stroke-width:0.114282;stroke-linecap:square;paint-order:fill markers stroke"
       d="m 91.927855,104.42656 h -14 v 14 h 14 z" />
    <path
       id="rect1311-1-1-1-2-9-5-0"
       style="fill:none;stroke:#000000;stroke-width:0.114282;stroke-linecap:square;paint-order:fill markers stroke"
       d="m 91.927855,82.426562 h -14 v 14 h 14 z" />
    <path
       id="rect1311-1-1-1-2-4-6-9"
       style="fill:none;stroke:#000000;stroke-width:0.114282;stroke-linecap:square;paint-order:fill markers stroke"
       d="m 91.927855,60.426554 h -14 v 14 h 14 z" />
    <path
       id="rect1311-1-1-1-2-7-5-3"
       style="fill:none;stroke:#000000;stroke-width:0.114282;stroke-linecap:square;paint-order:fill markers stroke"
       d="m 66.927855,126.42656 h -14 v 14 h 14 z" />
    <path
       id="rect1311-1-1-1-2-8-1-6"
       style="fill:none;stroke:#000000;stroke-width:0.114282;stroke-linecap:square;paint-order:fill markers stroke"
       d="m 66.927855,104.42656 h -14 v 14 h 14 z" />
    <path
       id="rect1311-1-1-1-2-1-8-0"
       style="fill:none;stroke:#000000;stroke-width:0.114282;stroke-linecap:square;paint-order:fill markers stroke"
       d="m 46.927855,126.42656 h -14 v 14 h 14 z" />
    <path
       id="rect1311-1-1-1-2-2-1-6"
       style="fill:none;stroke:#000000;stroke-width:0.114282;stroke-linecap:square;paint-order:fill markers stroke"
       d="m 46.927855,104.42656 h -14 v 14 h 14 z" />
    <path
       id="rect1311-1-1-1-2-9-0-2"
       style="fill:none;stroke:#000000;stroke-width:0.114282;stroke-linecap:square;paint-order:fill markers stroke"
       d="m 46.927855,82.426562 h -14 v 14 h 14 z" />
    <path
       id="rect1311-1-1-1-2-4-4-6"
       style="fill:none;stroke:#000000;stroke-width:0.114282;stroke-linecap:square;paint-order:fill markers stroke"
       d="m 46.927855,60.426554 h -14 v 14 h 14 z" />
    <path
       id="rect2166-1"
       style="fill:none;stroke:#000000;stroke-width:0.225174;stroke-linecap:square;paint-order:fill markers stroke"
       d="M 166.92785,28.426556 H 22.927855 V 172.42656 H 166.92785 Z" />
    <path
       id="rect2218-8"
       style="fill:none;stroke:#000000;stroke-width:0.0475246;stroke-linecap:square;paint-order:fill markers stroke"
       d="m 48.427855,124.42656 h -17 v 18 h 17 z" />
    <path
       id="rect2218-1-7"
       style="fill:none;stroke:#000000;stroke-width:0.0475246;stroke-linecap:square;paint-order:fill markers stroke"
       d="m 68.427855,124.42656 h -17 v 18 h 17 z" />
    <path
       id="rect1311-1-1-1-2-8-8-9-9"
       style="fill:none;stroke:#000000;stroke-width:0.114282;stroke-linecap:square;paint-order:fill markers stroke"
       d="M 111.92785,82.426562 H 97.927855 v 14 h 13.999995 z" />
    <path
       id="rect1311-1-1-1-2-8-8-9-1-2"
       style="fill:none;stroke:#000000;stroke-width:0.114282;stroke-linecap:square;paint-order:fill markers stroke"
       d="m 66.927855,82.426562 h -14 v 14 h 14 z" />
    <path
       id="rect2218-7-02"
       style="fill:none;stroke:#000000;stroke-width:0.0475246;stroke-linecap:square;paint-order:fill markers stroke"
       d="m 48.427855,102.42656 h -17 v 18 h 17 z" />
    <path
       id="rect2218-7-8-3"
       style="fill:none;stroke:#000000;stroke-width:0.0475246;stroke-linecap:square;paint-order:fill markers stroke"
       d="m 48.427855,80.426554 h -17 v 18 h 17 z" />
    <path
       id="rect2218-7-5-7"
       style="fill:none;stroke:#000000;stroke-width:0.0475246;stroke-linecap:square;paint-order:fill markers stroke"
       d="m 48.427855,58.426554 h -17 v 18 h 17 z" />
    <path
       id="rect2218-7-7-5"
       style="fill:none;stroke:#000000;stroke-width:0.0475246;stroke-linecap:square;paint-order:fill markers stroke"
       d="m 68.427855,80.426554 h -17 v 18 h 17 z" />
    <path
       id="rect2218-7-4-9"
       style="fill:none;stroke:#000000;stroke-width:0.0475246;stroke-linecap:square;paint-order:fill markers stroke"
       d="m 68.427855,102.42656 h -17 v 18 h 17 z" />
    <path
       id="rect2218-7-1-2"
       style="fill:none;stroke:#000000;stroke-width:0.0475246;stroke-linecap:square;paint-order:fill markers stroke"
       d="m 93.427855,124.42656 h -17 v 18 h 17 z" />
    <path
       id="rect2218-7-85-2"
       style="fill:none;stroke:#000000;stroke-width:0.0475246;stroke-linecap:square;paint-order:fill markers stroke"
       d="m 93.427855,102.42656 h -17 v 18 h 17 z" />
    <path
       id="rect2218-7-9-8"
       style="fill:none;stroke:#000000;stroke-width:0.0475246;stroke-linecap:square;paint-order:fill markers stroke"
       d="m 93.427895,80.426554 h -17 v 18 h 17 z" />
    <path
       id="rect2218-7-75-9"
       style="fill:none;stroke:#000000;stroke-width:0.0475246;stroke-linecap:square;paint-order:fill markers stroke"
       d="m 93.427855,58.426554 h -17 v 18 h 17 z" />
    <path
       id="rect2218-7-3-7"
       style="fill:none;stroke:#000000;stroke-width:0.0475246;stroke-linecap:square;paint-order:fill markers stroke"
       d="M 113.42786,80.426554 H 96.427865 v 18 h 16.999995 z" />
    <path
       id="rect2218-7-88-3"
       style="fill:none;stroke:#000000;stroke-width:0.0475246;stroke-linecap:square;paint-order:fill markers stroke"
       d="M 113.42786,102.42656 H 96.427865 v 18 h 16.999995 z" />
    <path
       id="rect2218-7-31-6"
       style="fill:none;stroke:#000000;stroke-width:0.0475246;stroke-linecap:square;paint-order:fill markers stroke"
       d="m 138.42785,102.42656 h -17 v 18 h 17 z" />
    <path
       id="rect2218-7-89-1"
       style="fill:none;stroke:#000000;stroke-width:0.0475246;stroke-linecap:square;paint-order:fill markers stroke"
       d="m 138.42785,124.42656 h -17 v 18 h 17 z" />
    <path
       id="rect2218-7-6-2"
       style="fill:none;stroke:#000000;stroke-width:0.0475246;stroke-linecap:square;paint-order:fill markers stroke"
       d="M 113.42783,124.42656 H 96.427835 v 18 h 16.999995 z" />
    <path
       id="rect2218-7-43-9"
       style="fill:none;stroke:#000000;stroke-width:0.0475246;stroke-linecap:square;paint-order:fill markers stroke"
       d="m 138.42789,80.426554 h -17 v 18 h 17 z" />
    <path
       id="rect2218-7-33-3"
       style="fill:none;stroke:#000000;stroke-width:0.0475246;stroke-linecap:square;paint-order:fill markers stroke"
       d="m 138.42785,58.426554 h -17 v 18 h 17 z" />
    <path
       id="rect2218-7-86-1"
       style="fill:none;stroke:#000000;stroke-width:0.0475246;stroke-linecap:square;paint-order:fill markers stroke"
       d="m 158.42785,102.42656 h -17 v 18 h 17 z" />
    <path
       id="rect2218-7-0-9"
       style="fill:none;stroke:#000000;stroke-width:0.0475246;stroke-linecap:square;paint-order:fill markers stroke"
       d="m 158.42783,124.42656 h -17 v 18 h 17 z" />
    <path
       id="path2788-4"
       style="fill:none;stroke:#000000;stroke-width:0.0640269;stroke-linecap:square;paint-order:fill markers stroke"
       d="m 155.92785,37.426554 a 2,2 0 0 0 2,2 2,2 0 0 0 2,-2 2,2 0 0 0 -2,-2 2,2 0 0 0 -2,2 z" />
    <path
       id="path2788-0-7"
       style="fill:none;stroke:#000000;stroke-width:0.0640269;stroke-linecap:square;paint-order:fill markers stroke"
       d="m 29.927855,37.426554 a 2,2 0 0 0 2,2 2,2 0 0 0 2,-2 2,2 0 0 0 -2,-2 2,2 0 0 0 -2,2 z" />
    <path
       id="path2788-5-8"
       style="fill:none;stroke:#000000;stroke-width:0.0640269;stroke-linecap:square;paint-order:fill markers stroke"
       d="m 29.927855,163.42655 a 2,2 0 0 0 2,2 2,2 0 0 0 2,-2 2,2 0 0 0 -2,-2 2,2 0 0 0 -2,2 z" />
    <path
       id="path2788-9-4"
       style="fill:none;stroke:#000000;stroke-width:0.0640269;stroke-linecap:square;paint-order:fill markers stroke"
       d="m 155.92785,163.42655 a 2,2 0 0 0 2,2 2,2 0 0 0 2,-2 2,2 0 0 0 -2,-2 2,2 0 0 0 -2,2 z" />
    <path
       id="path2897-5"
       style="fill:none;stroke:#000000;stroke-width:0.0827475;stroke-linecap:square;paint-order:fill markers stroke"
       d="m 146.92786,163.42655 a 2,2 0 0 0 2,2 2,2 0 0 0 2,-2 2,2 0 0 0 -2,-2 2,2 0 0 0 -2,2 z" />
    <path
       id="path2897-4-0"
       style="fill:none;stroke:#000000;stroke-width:0.0827475;stroke-linecap:square;paint-order:fill markers stroke"
       d="m 38.927855,163.42655 a 2,2 0 0 0 2,2 2,2 0 0 0 2,-2 2,2 0 0 0 -2,-2 2,2 0 0 0 -2,2 z" />
    <path
       id="path2897-4-4-3"
       style="fill:none;stroke:#000000;stroke-width:0.0827475;stroke-linecap:square;paint-order:fill markers stroke"
       d="m 38.927855,37.426554 a 2,2 0 0 0 2,2 2,2 0 0 0 2,-2 2,2 0 0 0 -2,-2 2,2 0 0 0 -2,2 z" />
    <path
       id="path2897-4-8-6"
       style="fill:none;stroke:#000000;stroke-width:0.0827475;stroke-linecap:square;paint-order:fill markers stroke"
       d="m 146.92786,37.426554 a 2,2 0 0 0 2,2 2,2 0 0 0 2,-2 2,2 0 0 0 -2,-2 2,2 0 0 0 -2,2 z" />
    <path
       id="rect2999-1"
       style="fill:none;stroke:#000000;stroke-width:0.0838075;stroke-linecap:square;paint-order:fill markers stroke"
       d="M 137.42786,38.426554 H 52.427865 V 51.43093 h 84.999995 z" />
    <path
       id="rect2999-2-0"
       style="fill:none;stroke:#000000;stroke-width:0.0840292;stroke-linecap:square;paint-order:fill markers stroke"
       d="M 137.42785,149.35318 H 52.427855 v 13.07337 h 84.999995 z" />
  </g>
</svg>
