<?xml version="1.0" encoding="UTF-8" standalone="no"?>
<svg
   xmlns:dc="http://purl.org/dc/elements/1.1/"
   xmlns:cc="http://creativecommons.org/ns#"
   xmlns:rdf="http://www.w3.org/1999/02/22-rdf-syntax-ns#"
   xmlns:svg="http://www.w3.org/2000/svg"
   xmlns="http://www.w3.org/2000/svg"
   xmlns:sodipodi="http://sodipodi.sourceforge.net/DTD/sodipodi-0.dtd"
   xmlns:inkscape="http://www.inkscape.org/namespaces/inkscape"
   width="210mm"
   height="297mm"
   viewBox="0 0 210 297"
   version="1.1"
   id="svg2347"
   inkscape:version="1.0.2 (e86c870879, 2021-01-15)"
   sodipodi:docname="middle.svg">
  <defs
     id="defs2341" />
  <sodipodi:namedview
     id="base"
     pagecolor="#ffffff"
     bordercolor="#666666"
     borderopacity="1.0"
     inkscape:pageopacity="0.0"
     inkscape:pageshadow="2"
     inkscape:zoom="0.98994949"
     inkscape:cx="352.18277"
     inkscape:cy="375.94453"
     inkscape:document-units="mm"
     inkscape:current-layer="layer1"
     inkscape:document-rotation="0"
     showgrid="false"
     inkscape:window-width="1564"
     inkscape:window-height="974"
     inkscape:window-x="50"
     inkscape:window-y="77"
     inkscape:window-maximized="0" />
  <metadata
     id="metadata2344">
    <rdf:RDF>
      <cc:Work
         rdf:about="">
        <dc:format>image/svg+xml</dc:format>
        <dc:type
           rdf:resource="http://purl.org/dc/dcmitype/StillImage" />
        <dc:title />
      </cc:Work>
    </rdf:RDF>
  </metadata>
  <g
     inkscape:label="Layer 1"
     inkscape:groupmode="layer"
     id="layer1">
    <path
       id="rect2166-2"
       style="fill:none;stroke:#000000;stroke-width:0.225174;stroke-linecap:square;paint-order:fill markers stroke"
       transform="scale(-1,1)"
       d="M -174.36987,21.722132 H -30.369873 V 165.72213 H -174.36987 Z" />
    <path
       id="path2788-8"
       style="fill:none;stroke:#000000;stroke-width:0.0640269;stroke-linecap:square;paint-order:fill markers stroke"
       transform="scale(-1,1)"
       d="m -163.36987,30.722132 a 2,2 0 0 1 -2,2 2,2 0 0 1 -2,-2 2,2 0 0 1 2,-2 2,2 0 0 1 2,2 z" />
    <path
       id="path2788-0-9"
       style="fill:none;stroke:#000000;stroke-width:0.0640269;stroke-linecap:square;paint-order:fill markers stroke"
       transform="scale(-1,1)"
       d="m -37.369858,30.722132 a 2,2 0 0 1 -2,2 2,2 0 0 1 -2,-2 2,2 0 0 1 2,-2 2,2 0 0 1 2,2 z" />
    <path
       id="path2788-5-7"
       style="fill:none;stroke:#000000;stroke-width:0.0640269;stroke-linecap:square;paint-order:fill markers stroke"
       transform="scale(-1,1)"
       d="m -37.369858,156.72212 a 2,2 0 0 1 -2,2 2,2 0 0 1 -2,-2 2,2 0 0 1 2,-2 2,2 0 0 1 2,2 z" />
    <path
       id="path2788-9-7"
       style="fill:none;stroke:#000000;stroke-width:0.0640269;stroke-linecap:square;paint-order:fill markers stroke"
       transform="scale(-1,1)"
       d="m -163.36987,156.72212 a 2,2 0 0 1 -2,2 2,2 0 0 1 -2,-2 2,2 0 0 1 2,-2 2,2 0 0 1 2,2 z" />
    <path
       id="path2897-3"
       style="fill:none;stroke:#000000;stroke-width:0.066198;stroke-linecap:square;paint-order:fill markers stroke"
       transform="scale(-1,1)"
       d="m -154.76987,156.72212 a 1.6,1.6 0 0 1 -1.6,1.6 1.6,1.6 0 0 1 -1.6,-1.6 1.6,1.6 0 0 1 1.6,-1.6 1.6,1.6 0 0 1 1.6,1.6 z" />
    <path
       id="path2897-4-9"
       style="fill:none;stroke:#000000;stroke-width:0.066198;stroke-linecap:square;paint-order:fill markers stroke"
       transform="scale(-1,1)"
       d="m -46.769858,156.72212 a 1.6,1.6 0 0 1 -1.6,1.6 1.6,1.6 0 0 1 -1.6,-1.6 1.6,1.6 0 0 1 1.6,-1.6 1.6,1.6 0 0 1 1.6,1.6 z" />
    <path
       id="path2897-4-4-4"
       style="fill:none;stroke:#000000;stroke-width:0.066198;stroke-linecap:square;paint-order:fill markers stroke"
       transform="scale(-1,1)"
       d="m -46.769858,30.722132 a 1.6,1.6 0 0 1 -1.6,1.6 1.6,1.6 0 0 1 -1.6,-1.6 1.6,1.6 0 0 1 1.6,-1.6 1.6,1.6 0 0 1 1.6,1.6 z" />
    <path
       id="path2897-4-8-0"
       style="fill:none;stroke:#000000;stroke-width:0.066198;stroke-linecap:square;paint-order:fill markers stroke"
       transform="scale(-1,1)"
       d="m -154.76987,30.722132 a 1.6,1.6 0 0 1 -1.6,1.6 1.6,1.6 0 0 1 -1.6,-1.6 1.6,1.6 0 0 1 1.6,-1.6 1.6,1.6 0 0 1 1.6,1.6 z" />
    <path
       id="rect2167"
       style="fill:none;stroke:#000000;stroke-width:0.0709811;stroke-linecap:square;paint-order:fill markers stroke"
       d="m 146.86979,28.722332 v 9.999906 h 5.00023 v 26.066109 h 17.28627 v 84.253763 h -22.2865 v 9.68004 H 57.87007 v -9.68004 H 36.3432 V 64.788347 38.722238 h 21.52687 v -9.999906 z" />
    <path
       id="rect2235"
       style="fill:none;stroke:#000000;stroke-width:0.0687782;stroke-linecap:square;paint-order:fill markers stroke"
       transform="scale(-1,1)"
       d="m -52.619858,26.472132 h 8.5 v 8.5 h -8.5 z" />
    <path
       id="rect2235-0"
       style="fill:none;stroke:#000000;stroke-width:0.0687782;stroke-linecap:square;paint-order:fill markers stroke"
       transform="scale(-1,1)"
       d="m -160.61987,26.472132 h 8.5 v 8.5 h -8.5 z" />
    <path
       id="rect2235-2"
       style="fill:none;stroke:#000000;stroke-width:0.0687782;stroke-linecap:square;paint-order:fill markers stroke"
       transform="scale(-1,1)"
       d="m -52.619858,152.47212 h 8.5 v 8.5 h -8.5 z" />
    <path
       id="rect2235-2-1"
       style="fill:none;stroke:#000000;stroke-width:0.0687782;stroke-linecap:square;paint-order:fill markers stroke"
       transform="scale(-1,1)"
       d="m -160.61987,152.47212 h 8.5 v 8.5 h -8.5 z" />
  </g>
</svg>
